# xmcd CD database file
#
# Track frame offsets:
#	182
#	17250
#	36215
#	56802
#	71747
#	88797
#	104005
#	114467
#	130790
#	142772
#	155422
#	170025
#	185297
#	200315
#	216347
#
# Disc length: 3029 seconds
#
# Revision: 0
# Processed by: cddbd v1.5.1PL2 Copyright (c) Steve Scherf et al.
# Submitted via: CDex 1.51
#
DISCID=d30bd30f
DTITLE=Suzanne Klee and Harry Shannon - In Love With Country
DYEAR=1900
DGENRE=Country
TTITLE0=Makin' Belive
TTITLE1=City Of New Orleans
TTITLE2=LLovin' Her Was Easier
TTITLE3=Losin' You For Good
TTITLE4=Don't Let me Cross Over
TTITLE5=Save The Last Dance For Me
TTITLE6=He'll Have To Go
TTITLE7=It's A Long Way To Texas Tonight
TTITLE8=Same Broken Hearts Never Mend
TTITLE9=I'll Need Someone To Hold Me When I Cry
TTITLE10=My Heros Have Always Been Cowboys
TTITLE11=Lay Down Beside Me
TTITLE12=My Elusive Dreams
TTITLE13=Detroit City
TTITLE14=Crin' Time
EXTD=
EXTT0=
EXTT1=
EXTT2=
EXTT3=
EXTT4=
EXTT5=
EXTT6=
EXTT7=
EXTT8=
EXTT9=
EXTT10=
EXTT11=
EXTT12=
EXTT13=
EXTT14=
PLAYORDER=
